<?xml version="1.0" standalone="no"?>
<!DOCTYPE svg PUBLIC "-//W3C//DTD SVG 20010904//EN"
 "http://www.w3.org/TR/2001/REC-SVG-20010904/DTD/svg10.dtd">
<svg version="1.0" xmlns="http://www.w3.org/2000/svg"
 width="480.000000pt" height="360.000000pt" viewBox="0 0 480.000000 360.000000"
 preserveAspectRatio="xMidYMid meet">

<g transform="translate(0.000000,360.000000) scale(0.100000,-0.100000)"
fill="#000000" stroke="none">
<path d="M2245 2998 l-107 -111 -166 36 c-110 23 -171 32 -179 26 -6 -6 -14
-53 -18 -107 -3 -53 -8 -118 -11 -144 l-6 -47 -153 -51 c-84 -28 -159 -57
-165 -65 -8 -10 10 -40 80 -135 50 -67 89 -127 87 -133 -3 -7 -42 -61 -86
-122 -48 -65 -80 -118 -79 -129 2 -15 36 -30 163 -73 181 -60 208 -64 203 -30
-3 19 -23 29 -148 71 -80 27 -146 50 -148 52 -2 1 36 54 83 118 l88 116 -29
41 c-16 23 -54 76 -86 118 -31 42 -54 79 -50 82 4 4 71 28 149 53 l141 47 6
37 c3 20 8 82 12 137 3 55 8 103 10 106 2 3 74 -10 160 -29 l156 -35 110 109
110 109 104 -109 105 -110 160 36 c88 19 161 32 163 29 2 -3 7 -60 11 -126 3
-66 9 -128 11 -137 3 -11 49 -31 147 -64 78 -25 145 -49 149 -53 4 -3 -20 -42
-54 -86 -33 -44 -71 -97 -85 -117 l-26 -38 88 -116 c47 -64 85 -117 83 -118
-2 -2 -68 -25 -148 -52 -125 -42 -145 -52 -148 -71 -3 -18 1 -23 20 -23 33 0
340 108 349 122 5 7 -2 25 -15 43 -12 16 -52 70 -89 119 -37 49 -67 93 -67 97
0 5 41 63 90 130 70 94 88 124 80 134 -6 8 -81 37 -165 65 l-153 51 -6 37 c-3
20 -8 85 -12 144 -3 60 -11 112 -18 117 -7 6 -71 -3 -179 -27 l-168 -36 -105
112 c-59 62 -114 112 -124 112 -10 0 -66 -50 -125 -112z"/>
<path d="M2290 2459 c-124 -9 -221 -67 -273 -164 -21 -37 -22 -56 -25 -292
l-3 -253 381 0 382 0 -4 253 c-3 236 -4 255 -25 292 -70 131 -204 182 -433
164z m35 -158 c0 -52 -2 -55 -30 -64 -52 -17 -55 -24 -55 -113 0 -94 -10 -108
-72 -100 -18 3 -36 5 -40 5 -15 2 -9 200 6 229 30 58 108 105 166 99 23 -2 25
-6 25 -56z"/>
<path d="M1883 1638 c-57 -15 -63 -34 -63 -210 l0 -158 550 0 550 0 0 153 c0
172 -7 196 -60 214 -42 14 -927 15 -977 1z"/>
</g>
</svg>
