<?xml version="1.0" standalone="no"?>
<!DOCTYPE svg PUBLIC "-//W3C//DTD SVG 20010904//EN"
 "http://www.w3.org/TR/2001/REC-SVG-20010904/DTD/svg10.dtd">
<svg version="1.0" xmlns="http://www.w3.org/2000/svg"
 width="225.000000pt" height="225.000000pt" viewBox="0 0 225.000000 225.000000"
 preserveAspectRatio="xMidYMid meet">

<g transform="translate(0.000000,225.000000) scale(0.100000,-0.100000)"
fill="#000000" stroke="none">
<path d="M982 2240 c-150 -32 -288 -194 -300 -352 -2 -37 1 -95 7 -129 10 -47
10 -64 0 -75 -17 -20 -6 -128 19 -189 11 -28 28 -77 38 -110 41 -137 181 -286
301 -321 183 -53 374 90 466 350 63 177 71 232 43 271 -11 16 -11 27 1 74 10
36 14 84 11 132 -5 90 -31 141 -101 206 -111 103 -347 172 -485 143z"/>
<path d="M745 1080 c-28 -16 -107 -49 -178 -76 -148 -54 -197 -91 -244 -181
-74 -139 -117 -358 -111 -565 4 -142 5 -144 125 -177 404 -109 1269 -103 1610
11 88 30 95 44 94 186 -2 207 -36 379 -102 518 -55 116 -95 149 -256 208 -71
27 -151 60 -178 76 -80 44 -85 35 -85 -141 l-1 -144 -132 -350 -132 -350 -30
0 -30 0 -132 350 -132 350 -1 145 c0 176 -5 184 -85 140z"/>
<path d="M1061 904 l51 -76 -45 -47 -46 -46 47 -284 c26 -157 52 -286 57 -288
6 -1 30 119 57 285 l47 287 -46 46 -45 47 39 58 c22 33 42 64 46 70 5 8 -17
11 -76 10 -45 0 -95 3 -110 7 -27 7 -27 6 24 -69z"/>
</g>
</svg>
