<?xml version="1.0" standalone="no"?>
<!DOCTYPE svg PUBLIC "-//W3C//DTD SVG 20010904//EN"
 "http://www.w3.org/TR/2001/REC-SVG-20010904/DTD/svg10.dtd">
<svg version="1.0" xmlns="http://www.w3.org/2000/svg"
 width="490.000000pt" height="490.000000pt" viewBox="0 0 490.000000 490.000000"
 preserveAspectRatio="xMidYMid meet">

<g transform="translate(0.000000,490.000000) scale(0.100000,-0.100000)"
fill="#000000" stroke="none">
<path d="M3410 4569 c-269 -29 -474 -100 -508 -174 -9 -19 -12 -211 -12 -705
l0 -680 800 0 800 0 0 683 c0 656 -1 683 -19 714 -36 57 -190 115 -401 149
-114 19 -534 27 -660 13z m695 -224 l0 -110 -409 -3 c-321 -2 -411 0 -418 10
-9 15 -11 179 -2 202 6 15 49 16 418 14 l411 -3 0 -110z m-927 33 c26 -26 8
-78 -27 -78 -18 0 -51 29 -51 46 0 34 54 56 78 32z m1072 -3 c15 -19 6 -61
-16 -69 -27 -10 -53 3 -60 30 -8 30 11 54 41 54 12 0 28 -7 35 -15z m-610
-520 l0 -295 -315 0 -315 0 0 295 0 295 315 0 315 0 0 -295z m730 0 l0 -295
-82 0 -81 0 44 23 c72 38 77 85 15 131 -25 19 -42 21 -194 21 -183 0 -214 -7
-241 -57 -14 -25 -14 -29 5 -55 11 -15 36 -36 55 -45 l34 -17 -92 -1 -93 0 0
295 0 295 315 0 315 0 0 -295z m-237 -185 c14 -11 33 -21 44 -21 16 -1 16 -2
1 -6 -24 -6 -34 -49 -17 -70 12 -14 12 -16 -1 -11 -9 3 -16 20 -18 42 -3 32
-8 40 -37 52 -19 7 -42 11 -52 8 -50 -16 -62 -27 -65 -62 -2 -21 -9 -37 -18
-40 -12 -4 -13 -2 -2 9 20 21 15 59 -10 69 l-23 9 22 0 c12 1 25 6 28 12 21
32 111 38 148 9z m-153 -280 l0 -30 -290 0 -290 0 0 30 0 30 290 0 290 0 0
-30z m-789 -7 c66 -39 75 -131 19 -188 -26 -25 -38 -30 -80 -30 -42 0 -54 5
-80 30 -99 100 20 259 141 188z m1119 1 c66 -39 79 -121 29 -178 -50 -58 -125
-58 -179 -1 -86 92 40 243 150 179z m-330 -129 l0 -35 -290 0 -290 0 0 35 0
35 290 0 290 0 0 -35z m0 -135 l0 -30 -290 0 -290 0 0 30 0 30 290 0 290 0 0
-30z"/>
<path d="M3387 4393 c-12 -11 -8 -36 9 -55 16 -16 15 -18 -7 -27 -21 -8 -22
-10 -6 -16 18 -8 47 10 47 28 0 6 -8 19 -17 30 -13 15 -15 21 -5 24 6 3 12 9
12 14 0 10 -23 12 -33 2z"/>
<path d="M3450 4385 c-26 -31 -8 -95 26 -95 19 0 18 16 -1 24 -8 3 -15 17 -15
31 0 14 7 28 15 31 8 4 15 10 15 15 0 14 -26 10 -40 -6z"/>
<path d="M3500 4345 c0 -30 5 -55 10 -55 6 0 10 11 10 25 0 14 5 25 10 25 6 0
10 -11 10 -25 0 -14 5 -25 10 -25 6 0 10 25 10 55 0 30 -4 55 -10 55 -5 0 -10
-9 -10 -20 0 -11 -4 -20 -10 -20 -5 0 -10 9 -10 20 0 11 -4 20 -10 20 -5 0
-10 -25 -10 -55z"/>
<path d="M3580 4374 c-19 -49 13 -100 46 -73 8 6 14 26 14 43 0 55 -43 77 -60
30z m40 -29 c0 -29 -17 -42 -22 -18 -6 25 3 54 13 47 5 -3 9 -16 9 -29z"/>
<path d="M3662 4388 c-17 -17 -15 -73 3 -88 31 -26 59 33 39 84 -7 19 -25 21
-42 4z m28 -43 c0 -19 -4 -35 -10 -35 -5 0 -10 16 -10 35 0 19 5 35 10 35 6 0
10 -16 10 -35z"/>
<path d="M3730 4346 c0 -49 2 -56 20 -56 11 0 20 5 20 10 0 6 -4 10 -10 10 -5
0 -10 18 -10 39 0 22 -4 43 -10 46 -6 4 -10 -15 -10 -49z"/>
<path d="M3810 4346 c0 -59 9 -68 43 -43 26 18 10 91 -21 95 -20 3 -22 -1 -22
-52z m35 -15 c3 -5 1 -12 -5 -16 -5 -3 -10 1 -10 9 0 18 6 21 15 7z"/>
<path d="M3880 4356 c0 -47 17 -70 44 -60 12 4 16 19 16 55 0 27 -4 49 -10 49
-5 0 -10 -20 -10 -45 0 -25 -4 -45 -10 -45 -5 0 -10 20 -10 45 0 25 -4 45 -10
45 -5 0 -10 -20 -10 -44z"/>
<path d="M3967 4393 c-12 -11 -8 -36 9 -55 16 -16 15 -18 -6 -26 -15 -6 -19
-11 -12 -16 14 -9 52 10 52 26 0 6 -8 20 -17 31 -13 15 -15 21 -5 24 6 3 12 9
12 14 0 10 -23 12 -33 2z"/>
<path d="M3920 4038 c0 -5 7 -20 16 -33 16 -24 20 -25 130 -25 107 0 114 1
114 20 0 11 -6 20 -12 21 -7 0 -66 6 -130 13 -65 6 -118 8 -118 4z"/>
<path d="M3920 3945 l-23 -25 26 0 c24 0 27 -4 27 -36 0 -28 8 -44 34 -70 29
-29 41 -34 81 -34 40 0 52 5 81 34 31 31 34 39 34 95 l0 61 -118 0 c-113 0
-120 -1 -142 -25z"/>
<path d="M740 4503 c-83 -76 -35 -203 77 -203 38 0 50 5 80 35 33 33 35 38 31
87 -4 42 -11 57 -37 80 -44 39 -108 39 -151 1z"/>
<path d="M1083 4508 c-84 -22 -99 -137 -23 -181 70 -42 150 7 150 91 0 61 -65
107 -127 90z"/>
<path d="M1115 4267 c-25 -25 -36 -49 -49 -104 -9 -40 -16 -80 -16 -89 0 -16
2 -15 21 2 28 25 49 75 49 117 0 54 51 87 80 52 19 -23 7 -116 -21 -172 -22
-43 -88 -101 -130 -115 -8 -3 -8 -17 -2 -48 8 -42 11 -45 43 -48 l35 -3 1 -77
c2 -130 28 -185 77 -166 22 8 27 26 16 70 -4 22 -9 69 -9 105 0 72 5 79 58 79
79 1 82 9 57 153 -21 119 -51 195 -95 240 -46 46 -72 47 -115 4z"/>
<path d="M664 4280 c-100 -40 -147 -377 -62 -448 9 -7 39 -15 67 -19 l50 -6
-50 -40 c-58 -46 -75 -78 -58 -110 34 -64 67 -53 215 69 141 116 159 139 144
179 -13 34 -46 45 -142 45 l-81 0 7 65 c4 36 9 71 12 78 3 8 -10 18 -33 26
-46 16 -83 48 -83 71 0 9 9 25 20 35 19 17 32 17 88 0 28 -9 28 4 1 39 -21 27
-54 33 -95 16z"/>
<path d="M981 4256 c-53 -56 -163 -76 -229 -42 -42 21 -69 20 -82 -4 -17 -32
4 -56 67 -80 103 -39 219 -15 301 63 34 33 40 55 20 75 -19 19 -53 14 -77 -12z"/>
<path d="M1270 4234 c30 -49 70 -183 70 -236 0 -24 4 -28 28 -28 15 0 33 4 40
8 30 19 41 133 21 205 -9 33 -18 42 -62 62 -29 13 -69 27 -90 30 l-38 7 31
-48z"/>
<path d="M1144 4239 c-3 -6 -8 -28 -11 -48 -7 -61 -44 -122 -86 -144 -45 -23
-56 -43 -34 -64 32 -33 121 25 161 105 23 46 32 128 16 147 -15 18 -36 20 -46
4z"/>
<path d="M2665 4048 c-3 -13 -5 -72 -3 -133 l3 -110 88 -3 87 -3 0 136 0 135
-85 0 c-79 0 -85 -1 -90 -22z"/>
<path d="M4547 4064 c-4 -4 -7 -65 -7 -136 l0 -129 88 3 87 3 0 130 0 130 -80
3 c-45 1 -84 0 -88 -4z"/>
<path d="M1869 3905 c-27 -14 -59 -69 -59 -99 0 -35 30 -85 59 -100 39 -20
100 -20 129 0 28 19 52 65 52 99 0 87 -102 143 -181 100z"/>
<path d="M2223 3802 c-7 -5 -20 -32 -29 -61 -33 -111 -111 -159 -229 -138 -47
8 -60 7 -72 -6 -24 -23 -7 -55 35 -67 98 -27 206 -4 266 56 35 35 86 139 86
175 0 40 -28 60 -57 41z"/>
<path d="M1855 3642 c-78 -48 -135 -292 -135 -579 l0 -73 60 0 60 0 0 -125 c0
-112 2 -127 20 -145 27 -27 75 -26 94 2 12 17 16 50 16 145 l0 123 60 0 60 0
0 129 c0 128 -11 242 -31 332 l-10 46 -66 11 c-78 13 -113 34 -113 66 0 37 23
49 77 42 l48 -7 -28 26 c-33 30 -71 32 -112 7z"/>
<path d="M2624 3631 c-63 -38 -70 -128 -13 -175 52 -44 141 -28 167 29 23 49
15 94 -22 131 -40 40 -83 45 -132 15z"/>
<path d="M2545 3396 c-40 -17 -52 -33 -75 -101 -13 -39 -20 -84 -20 -137 0
-73 2 -82 28 -107 15 -15 33 -30 40 -32 33 -11 33 -153 1 -244 -11 -30 -10
-37 6 -55 22 -25 57 -26 78 -2 43 47 59 212 31 317 -11 41 -14 84 -11 135 5
75 4 76 -23 92 -38 21 -63 62 -55 87 10 31 43 36 76 12 19 -14 29 -17 29 -9 0
19 -12 33 -37 47 -27 14 -31 13 -68 -3z"/>
<path d="M2432 3374 c-114 -30 -142 -64 -142 -172 0 -110 18 -132 108 -132
l42 0 0 83 c0 92 19 170 51 211 24 30 18 31 -59 10z"/>
<path d="M2559 3349 c-9 -18 -6 -26 18 -51 55 -59 133 -80 215 -58 54 15 82
41 74 68 -9 26 -35 28 -78 6 -46 -24 -110 -14 -158 25 -46 37 -56 38 -71 10z"/>
<path d="M2897 2943 c-4 -3 -7 -26 -7 -50 l0 -43 55 0 55 0 0 -75 0 -75 130 0
130 0 0 75 0 75 430 0 430 0 0 -75 0 -75 130 0 130 0 0 75 0 75 56 0 55 0 -3
48 -3 47 -791 3 c-435 1 -794 -1 -797 -5z"/>
<path d="M985 2896 c-65 -29 -91 -95 -61 -158 46 -96 182 -87 216 16 30 91
-68 182 -155 142z"/>
<path d="M871 2623 c-71 -35 -124 -150 -137 -298 -4 -41 -11 -75 -16 -75 -24
0 -67 33 -91 69 l-27 41 -75 0 -75 0 51 -62 c28 -35 65 -88 82 -118 l32 -55 3
46 3 46 37 -18 c20 -11 46 -19 59 -19 12 0 25 -4 28 -10 10 -16 49 -11 66 8
28 33 31 43 16 60 -12 14 -13 32 -6 94 9 79 43 188 60 188 5 0 9 -166 9 -413
0 -388 1 -415 18 -430 25 -23 65 -21 88 4 17 19 19 42 22 270 2 149 7 249 12
249 6 0 10 -99 10 -250 0 -237 1 -251 20 -270 23 -23 58 -26 86 -6 18 14 19
33 24 433 l5 418 24 -49 c33 -69 49 -178 31 -211 -12 -23 -11 -30 8 -63 26
-47 66 -56 83 -19 8 18 22 26 48 30 20 3 47 9 60 13 20 6 22 4 17 -14 -8 -25
-36 -228 -36 -265 0 -20 7 -31 25 -39 24 -11 25 -14 25 -110 0 -110 9 -138 45
-138 36 0 45 27 45 134 0 57 4 96 10 96 6 0 10 -39 10 -96 0 -107 9 -134 45
-134 36 0 45 28 45 138 0 97 1 99 26 111 24 11 26 15 21 59 -3 26 -6 48 -6 48
-1 1 -23 16 -51 34 -65 42 -139 123 -176 194 -26 51 -31 56 -54 50 -14 -3 -40
-10 -57 -14 -36 -9 -33 -15 -48 105 -14 107 -70 206 -136 241 -42 21 -262 19
-308 -3z"/>
<path d="M454 2596 c-45 -20 -70 -77 -55 -127 15 -51 53 -79 106 -79 52 0 89
27 105 76 29 88 -68 170 -156 130z"/>
<path d="M1489 2531 c-63 -64 -19 -171 71 -171 30 0 46 7 69 31 65 65 23 169
-69 169 -33 0 -48 -6 -71 -29z"/>
<path d="M366 2329 c-34 -27 -62 -83 -81 -161 -20 -84 -20 -154 0 -162 29 -11
44 5 50 52 11 85 26 147 40 172 13 22 14 -8 15 -252 0 -264 1 -279 20 -298 24
-24 43 -25 64 -4 22 22 26 43 29 184 l3 125 2 -142 c2 -128 4 -145 22 -163 11
-11 27 -20 35 -20 8 0 24 9 35 20 18 18 20 33 20 190 0 189 -7 219 -72 320
-43 68 -126 160 -143 160 -7 0 -24 -9 -39 -21z"/>
<path d="M310 2318 c-18 -13 -42 -35 -53 -49 -26 -36 -33 -108 -14 -145 l15
-28 12 58 c15 75 33 116 66 155 30 37 20 40 -26 9z"/>
<path d="M1505 2333 c-37 -9 -37 -21 -5 -81 34 -65 117 -156 169 -185 l32 -19
-6 39 c-3 21 -8 49 -11 63 -4 19 -2 21 5 10 6 -8 15 -40 21 -70 6 -30 15 -64
21 -74 9 -15 8 -18 -5 -13 -10 4 -13 1 -10 -8 4 -11 13 -9 40 7 34 20 35 23
29 62 -18 119 -66 215 -125 249 -31 19 -119 30 -155 20z"/>
<path d="M1684 2309 c43 -37 92 -130 102 -196 3 -24 10 -43 14 -43 16 0 42
100 36 135 -12 65 -73 116 -151 130 l-40 7 39 -33z"/>
<path d="M360 2145 c-13 -64 -10 -117 8 -123 9 -3 12 19 12 87 0 50 -2 91 -4
91 -3 0 -10 -25 -16 -55z"/>
<path d="M2725 2027 c-127 -58 -172 -205 -99 -324 23 -38 42 -54 92 -78 l61
-30 1 -162 0 -162 -42 15 c-111 39 -200 55 -293 52 l-94 -3 102 -160 102 -159
3 117 c1 64 6 117 10 116 4 0 52 -15 107 -33 l100 -32 5 -404 5 -405 25 0 25
0 3 398 c2 341 4 399 17 403 19 8 19 48 0 64 -12 10 -15 43 -15 184 l1 171 61
30 c50 24 69 40 92 78 63 102 36 234 -62 302 -35 24 -55 30 -110 32 -41 2 -78
-2 -97 -10z m153 -52 l36 -16 -114 -114 c-63 -63 -119 -115 -123 -115 -18 0
-39 74 -32 117 16 107 131 170 233 128z m97 -128 c15 -79 -43 -165 -125 -187
-43 -11 -113 1 -126 21 -4 6 44 61 107 125 124 124 128 125 144 41z"/>
<path d="M2260 1655 c0 -4 8 -20 17 -36 l17 -29 113 0 c105 0 113 1 113 19 0
22 -17 27 -130 36 -41 3 -87 8 -102 11 -16 3 -28 3 -28 -1z"/>
<path d="M2260 1555 l-23 -25 26 0 c22 0 27 -5 27 -25 0 -64 53 -115 120 -115
32 0 48 7 75 33 35 32 41 52 37 125 l-2 32 -118 0 c-113 0 -120 -1 -142 -25z"/>
<path d="M2132 1464 c-24 -16 -62 -111 -62 -154 0 -87 65 -118 178 -84 l22 6
0 -400 c0 -238 4 -411 10 -426 14 -37 50 -52 86 -34 l29 13 3 258 c2 219 5
257 17 257 13 0 15 -35 15 -248 0 -267 2 -275 52 -287 21 -5 33 -1 52 19 l26
25 0 248 0 248 -137 217 c-137 216 -137 216 -163 203 -36 -18 -99 -35 -104
-26 -2 3 4 31 14 61 11 30 19 65 20 77 0 31 -31 46 -58 27z"/>
<path d="M1824 1276 c-73 -73 -25 -186 80 -186 81 0 131 97 87 168 -40 62
-115 70 -167 18z"/>
<path d="M3272 1297 c-101 -58 -59 -207 59 -207 96 0 142 129 69 195 -25 22
-98 29 -128 12z"/>
<path d="M1275 1261 c-38 -16 -60 -51 -60 -96 0 -50 21 -79 70 -95 41 -13 97
6 115 40 15 28 15 81 1 109 -22 40 -82 60 -126 42z"/>
<path d="M3760 1259 c-38 -15 -60 -49 -60 -95 0 -97 119 -135 180 -57 60 76
-30 189 -120 152z"/>
<path d="M1765 1060 c-53 -22 -90 -96 -101 -203 -9 -90 8 -145 50 -162 20 -8
36 -24 40 -37 11 -43 6 -144 -10 -191 -20 -60 -12 -95 23 -103 14 -4 33 -3 41
3 27 17 54 113 55 198 2 102 -16 173 -59 235 -68 99 -70 240 -3 240 29 0 48
-36 42 -83 -4 -32 -3 -39 6 -31 7 6 13 32 14 57 3 71 -37 103 -98 77z"/>
<path d="M3188 1059 c-35 -13 -63 -59 -83 -134 -30 -118 -12 -217 44 -236 21
-7 30 -19 35 -41 10 -51 7 -107 -11 -180 -19 -78 -13 -101 29 -106 35 -4 55
19 74 86 33 112 12 276 -43 349 -68 89 -70 243 -4 243 30 0 45 -28 43 -78 -2
-37 0 -43 9 -29 5 9 11 36 11 59 1 65 -39 90 -104 67z"/>
<path d="M1199 1023 c-17 -15 -42 -50 -54 -78 -40 -89 -77 -297 -55 -310 6 -3
35 -9 65 -12 53 -6 54 -6 60 -42 3 -20 1 -66 -4 -101 -15 -89 -14 -98 9 -110
48 -26 80 44 80 174 l0 62 38 10 c35 8 37 12 40 51 3 40 1 43 -36 62 -53 27
-99 84 -117 145 -27 90 -17 136 31 136 29 0 40 -16 48 -73 6 -52 31 -103 54
-112 20 -8 8 83 -20 148 -35 81 -82 98 -139 50z"/>
<path d="M1641 1034 c-81 -22 -119 -49 -127 -90 -9 -49 -1 -181 13 -195 6 -6
38 -13 71 -16 l60 -6 -5 64 c-6 72 15 172 47 226 22 38 19 38 -59 17z"/>
<path d="M3045 1026 c-38 -13 -77 -33 -86 -45 -34 -41 -33 -201 0 -234 7 -7
36 -12 66 -12 l55 0 4 95 c3 95 22 165 54 203 14 15 13 17 -4 17 -10 0 -50
-11 -89 -24z"/>
<path d="M3674 1015 c-18 -19 -42 -59 -53 -89 -25 -68 -53 -216 -49 -259 3
-30 6 -33 53 -41 28 -4 56 -10 63 -12 15 -4 16 -109 1 -173 -9 -39 -7 -47 9
-64 16 -15 23 -17 40 -8 27 15 42 71 44 165 l2 74 38 6 38 6 0 49 c0 44 -3 49
-25 55 -67 17 -135 129 -135 222 0 48 19 69 54 60 20 -5 27 -15 31 -44 13 -80
17 -92 36 -117 29 -36 41 -32 34 13 -14 82 -38 143 -67 167 -41 35 -74 32
-114 -10z"/>
<path d="M1130 1026 c-63 -18 -119 -46 -129 -65 -15 -28 -22 -109 -15 -157 8
-53 33 -84 67 -84 22 0 25 7 37 73 15 86 42 163 75 211 13 20 21 36 17 35 -4
0 -27 -6 -52 -13z"/>
<path d="M3603 1020 c-119 -33 -137 -59 -131 -189 4 -67 8 -86 23 -97 30 -22
64 -18 69 9 29 149 57 228 94 270 8 9 13 19 11 21 -2 2 -32 -4 -66 -14z"/>
<path d="M1780 1020 c-23 -15 -18 -125 8 -176 40 -78 129 -132 146 -88 8 20 2
28 -45 71 -43 39 -61 83 -57 143 3 51 -18 71 -52 50z"/>
<path d="M3200 1004 c-26 -68 7 -173 74 -232 45 -39 79 -40 84 -2 2 19 -4 30
-27 43 -40 23 -71 91 -71 154 0 37 -4 52 -16 57 -27 10 -34 7 -44 -20z"/>
<path d="M1230 985 c-19 -23 -2 -107 33 -166 38 -63 115 -111 142 -89 27 22
17 47 -27 72 -48 26 -88 91 -88 143 0 49 -34 71 -60 40z"/>
<path d="M3717 994 c-11 -11 -8 -82 4 -125 15 -50 62 -105 109 -129 41 -21 65
-19 74 7 8 20 2 29 -43 53 -46 27 -71 67 -86 140 -8 43 -15 56 -31 58 -11 2
-23 0 -27 -4z"/>
<path d="M2167 678 c-15 -12 -227 -412 -227 -430 0 -9 157 -9 270 1 l75 6 8
52 c7 46 6 56 -12 79 -19 24 -21 40 -21 165 l0 139 -38 0 c-21 0 -46 -6 -55
-12z"/>
<path d="M2570 598 c1 -51 11 -149 23 -218 l23 -125 172 -3 c95 -1 172 1 172
5 0 5 -25 53 -55 108 l-54 100 -3 -50 c-3 -50 -3 -50 -40 -53 l-38 -3 0 130
c0 102 -4 138 -17 166 l-17 35 -83 0 -83 0 0 -92z"/>
<path d="M2943 661 c14 -17 65 -76 113 -131 l89 -102 13 33 c7 18 16 63 19
100 6 67 5 68 -28 98 -33 30 -36 31 -132 31 l-99 0 25 -29z"/>
<path d="M3325 671 c17 -10 102 -64 190 -120 178 -112 173 -112 174 -14 1 58
-6 65 -74 78 -43 7 -68 22 -60 36 3 4 -8 15 -24 24 -21 11 -60 15 -133 15
l-103 0 30 -19z"/>
<path d="M1390 650 c0 -31 -22 -50 -59 -50 -19 0 -21 -6 -21 -55 l0 -55 119
78 c190 123 182 111 64 111 l-103 1 0 -30z"/>
<path d="M1870 663 c0 -10 3 -34 6 -54 l6 -37 32 37 c65 74 65 71 7 71 -42 0
-51 -3 -51 -17z"/>
<path d="M1502 450 c-127 -105 -234 -195 -237 -200 -4 -6 57 -10 164 -10 l169
0 61 67 c35 39 61 77 61 90 0 12 7 48 15 80 16 62 20 163 6 163 -4 0 -112 -86
-239 -190z"/>
<path d="M940 434 c-140 -74 -279 -147 -307 -161 -29 -15 -53 -31 -53 -35 0
-4 26 -6 58 -4 31 2 109 4 173 5 l115 1 125 81 c68 44 128 84 132 88 10 10 26
151 17 156 -3 2 -120 -57 -260 -131z"/>
<path d="M3288 457 c-13 -51 -25 -79 -43 -94 l-26 -23 42 -45 43 -46 163 2
c90 1 165 5 168 9 3 5 -316 270 -326 270 -2 0 -12 -33 -21 -73z"/>
<path d="M3797 508 c-3 -13 -9 -46 -12 -74 l-7 -50 98 -62 98 -62 173 0 c95 0
173 2 173 4 0 5 -505 266 -513 266 -3 0 -7 -10 -10 -22z"/>
</g>
</svg>
