<?xml version="1.0" standalone="no"?>
<!DOCTYPE svg PUBLIC "-//W3C//DTD SVG 20010904//EN"
 "http://www.w3.org/TR/2001/REC-SVG-20010904/DTD/svg10.dtd">
<svg version="1.0" xmlns="http://www.w3.org/2000/svg"
 width="225.000000pt" height="224.000000pt" viewBox="0 0 225.000000 224.000000"
 preserveAspectRatio="xMidYMid meet">

<g transform="translate(0.000000,224.000000) scale(0.100000,-0.100000)"
fill="#000000" stroke="none">
<path d="M785 1378 c-170 -49 -312 -92 -314 -94 -2 -2 -2 -7 2 -10 9 -10 619
-184 647 -185 14 -1 138 31 275 70 373 108 385 111 385 120 0 10 -630 191
-661 190 -13 0 -163 -41 -334 -91z"/>
<path d="M496 1118 c-2 -57 -6 -118 -8 -137 -2 -23 2 -37 15 -45 26 -17 53 5
49 40 -2 16 -5 74 -8 129 -6 91 -13 114 -36 115 -4 0 -9 -46 -12 -102z"/>
<path d="M1325 1100 l-200 -59 -190 55 c-104 30 -193 54 -197 54 -5 0 -8 -60
-8 -133 0 -132 0 -133 28 -159 60 -57 194 -88 379 -88 200 0 336 31 395 91 28
27 28 28 28 163 0 123 -2 136 -17 135 -10 -1 -108 -27 -218 -59z"/>
</g>
</svg>
