<?xml version="1.0" standalone="no"?>
<!DOCTYPE svg PUBLIC "-//W3C//DTD SVG 20010904//EN"
 "http://www.w3.org/TR/2001/REC-SVG-20010904/DTD/svg10.dtd">
<svg version="1.0" xmlns="http://www.w3.org/2000/svg"
 width="204.000000pt" height="247.000000pt" viewBox="0 0 204.000000 247.000000"
 preserveAspectRatio="xMidYMid meet">

<g transform="translate(0.000000,247.000000) scale(0.100000,-0.100000)"
fill="#000000" stroke="none">
<path d="M845 2461 c-107 -26 -175 -117 -175 -232 1 -59 28 -116 78 -161 130
-117 334 -48 373 126 35 160 -116 306 -276 267z m235 -290 c0 -5 -18 -25 -40
-45 -50 -45 -97 -48 -153 -11 -20 14 -37 29 -37 33 0 4 26 6 57 4 32 -1 81 4
108 11 64 19 65 19 65 8z"/>
<path d="M1545 2098 l-450 -121 -240 -6 c-231 -6 -242 -7 -295 -32 -108 -51
-310 -240 -327 -307 -5 -21 14 -73 104 -290 14 -33 13 -34 -9 -27 -13 4 -27 8
-31 9 -5 0 -16 -17 -24 -39 -9 -22 -17 -41 -18 -43 -1 -1 -24 6 -51 16 l-49
20 -76 -187 c-42 -102 -74 -189 -70 -193 12 -12 481 -196 485 -190 10 17 146
361 146 369 0 6 -18 16 -41 23 -22 8 -42 17 -45 21 -2 5 2 25 11 45 20 48 20
48 -14 61 -24 9 -28 15 -24 37 4 17 -15 76 -57 180 -61 152 -61 155 -44 181
19 30 140 135 155 135 5 0 9 -105 9 -264 0 -199 3 -265 12 -268 9 -3 8 -15 -5
-48 -9 -24 -16 -45 -14 -46 1 -1 23 -11 49 -21 l47 -18 -86 -210 c-46 -116
-86 -211 -87 -213 -2 -1 -24 6 -49 15 -25 9 -48 15 -50 13 -2 -3 -52 -130
-112 -282 -119 -306 -121 -320 -65 -376 50 -51 135 -49 182 4 9 11 100 235
203 499 103 264 189 486 192 493 4 9 10 7 20 -8 18 -25 65 -50 95 -50 13 0 94
20 180 45 86 25 163 45 170 45 9 0 32 -69 68 -197 47 -171 59 -202 86 -230 28
-29 38 -33 84 -33 46 0 56 4 86 34 28 28 34 41 34 77 0 24 -34 163 -75 309
-66 237 -78 268 -105 293 -39 35 -87 36 -201 2 -46 -13 -90 -25 -96 -25 -10 0
-13 59 -13 263 l0 262 358 94 c196 51 365 98 376 103 15 8 17 17 12 59 l-7 48
58 16 c88 24 105 33 101 53 -2 9 -12 18 -23 19 -11 1 -222 -52 -470 -119z
m-635 -248 c6 -22 8 -45 5 -49 -11 -19 -65 -23 -89 -7 -22 14 -23 18 -14 56
10 38 12 40 49 40 36 0 39 -2 49 -40z m23 -298 l26 -204 -46 -59 c-25 -33 -49
-59 -52 -59 -3 1 -27 27 -52 59 l-45 59 27 198 c15 110 28 202 28 205 1 3 20
6 44 6 l43 0 27 -205z m-583 -292 c5 0 21 -12 34 -27 20 -21 38 -29 78 -33 54
-5 68 -19 50 -48 -7 -10 -29 -5 -103 24 -52 20 -98 40 -102 44 -15 13 3 52 20
46 8 -3 19 -6 23 -6z"/>
<path d="M1720 1711 c-83 -26 -133 -77 -151 -157 -37 -163 143 -300 292 -221
162 86 132 331 -46 376 -49 12 -59 13 -95 2z m116 -50 c57 -26 87 -72 92 -140
4 -65 -19 -109 -77 -148 -40 -27 -117 -31 -161 -8 -116 60 -116 231 0 292 52
28 91 29 146 4z"/>
<path d="M1681 568 c-81 -33 -105 -38 -171 -38 -59 0 -104 -8 -191 -34 -63
-19 -170 -47 -239 -62 -88 -18 -130 -32 -142 -46 -10 -11 -45 -71 -79 -134
-53 -100 -66 -117 -102 -135 -59 -30 -95 -57 -107 -80 -11 -19 1 -19 678 -19
l689 0 -67 246 c-69 250 -75 263 -140 314 l-35 27 -94 -39z"/>
</g>
</svg>
