<?xml version="1.0" standalone="no"?>
<!DOCTYPE svg PUBLIC "-//W3C//DTD SVG 20010904//EN"
 "http://www.w3.org/TR/2001/REC-SVG-20010904/DTD/svg10.dtd">
<svg version="1.0" xmlns="http://www.w3.org/2000/svg"
 width="225.000000pt" height="225.000000pt" viewBox="0 0 225.000000 225.000000"
 preserveAspectRatio="xMidYMid meet">

<g transform="translate(0.000000,225.000000) scale(0.100000,-0.100000)"
fill="#000000" stroke="none">
<path d="M57 2232 c-16 -17 -17 -79 -17 -684 0 -621 1 -666 18 -680 9 -8 67
-28 128 -43 120 -29 146 -26 159 16 13 39 -16 62 -106 84 l-84 21 -3 587 c-2
466 0 587 10 587 7 -1 213 -49 458 -108 l445 -107 5 -157 c5 -167 9 -180 55
-180 46 0 50 13 55 180 l5 157 445 107 c245 59 451 107 458 108 10 0 12 -121
10 -587 l-3 -587 -93 -23 c-106 -25 -122 -34 -122 -72 0 -35 17 -51 52 -51 45
0 241 51 261 68 16 14 17 59 17 682 0 655 0 667 -20 685 -20 18 -34 15 -538
-105 -284 -68 -524 -123 -532 -122 -8 0 -242 55 -520 121 -278 67 -510 121
-516 121 -6 0 -18 -8 -27 -18z"/>
<path d="M1467 1602 c-10 -10 -17 -28 -17 -40 0 -22 5 -27 110 -95 89 -57 171
-142 236 -243 47 -72 58 -84 82 -84 63 0 68 48 15 139 -56 94 -172 213 -276
282 -96 63 -124 70 -150 41z"/>
<path d="M980 1454 c-36 -7 -103 -32 -150 -55 -69 -34 -102 -58 -170 -128
-132 -133 -191 -275 -192 -457 0 -115 16 -184 69 -294 37 -78 60 -109 122
-171 135 -135 278 -194 466 -194 188 0 331 59 466 194 62 62 85 93 122 171 53
110 69 179 69 294 -1 182 -60 324 -192 457 -69 70 -101 94 -170 128 -140 68
-292 87 -440 55z m334 -128 c166 -63 290 -196 340 -365 29 -98 41 -91 -164
-91 l-179 0 -15 28 c-34 65 -96 102 -171 102 -75 0 -137 -37 -171 -102 l-15
-28 -179 0 c-205 0 -193 -7 -164 91 58 196 220 346 419 389 75 17 223 5 299
-24z m-149 -442 c23 -9 48 -62 41 -90 -9 -35 -46 -64 -81 -64 -35 0 -72 29
-81 64 -6 26 17 81 38 89 19 8 64 8 83 1z m-220 -145 c10 -31 62 -85 95 -99
l30 -12 0 -183 0 -182 -52 9 c-85 14 -208 80 -276 147 -86 84 -162 234 -162
318 l0 23 179 0 c173 0 180 -1 186 -21z m725 -2 c0 -84 -76 -234 -162 -318
-68 -67 -191 -133 -275 -147 l-53 -9 0 182 0 183 30 12 c33 14 85 68 95 99 6
20 13 21 186 21 l179 0 0 -23z"/>
<path d="M342 474 c-32 -22 -28 -59 19 -135 76 -126 215 -258 336 -317 50 -25
52 -25 78 -8 19 13 25 24 23 44 -2 21 -20 38 -83 79 -97 64 -198 162 -245 238
-37 61 -83 115 -97 115 -5 0 -19 -7 -31 -16z"/>
</g>
</svg>
