<?xml version="1.0" standalone="no"?>
<!DOCTYPE svg PUBLIC "-//W3C//DTD SVG 20010904//EN"
 "http://www.w3.org/TR/2001/REC-SVG-20010904/DTD/svg10.dtd">
<svg version="1.0" xmlns="http://www.w3.org/2000/svg"
 width="225.000000pt" height="225.000000pt" viewBox="0 0 225.000000 225.000000"
 preserveAspectRatio="xMidYMid meet">

<g transform="translate(0.000000,225.000000) scale(0.100000,-0.100000)"
fill="#000000" stroke="none">
<path d="M954 2144 c-342 -57 -646 -297 -779 -614 -18 -41 -35 -88 -39 -103
-7 -28 -7 -28 39 -25 l47 3 28 72 c23 60 114 223 124 223 2 0 36 -15 77 -34
41 -19 100 -42 132 -52 31 -10 57 -22 57 -28 -1 -6 -7 -40 -15 -76 -23 -106
-22 -110 28 -110 l43 0 12 73 c7 39 16 78 20 85 7 10 29 9 113 -3 57 -8 134
-17 172 -21 l67 -6 0 -64 0 -64 45 0 45 0 0 64 0 64 68 6 c37 4 114 13 171 21
84 12 106 13 113 3 4 -7 13 -46 20 -85 l12 -73 43 0 c50 0 51 4 28 110 -8 36
-14 70 -15 76 0 6 26 18 58 28 31 10 90 33 131 52 41 19 75 34 77 34 10 0 101
-163 124 -223 l28 -72 46 -3 c25 -2 46 -1 46 1 0 16 -44 126 -78 192 -200 398
-646 624 -1088 549z m126 -305 l0 -222 -77 7 c-146 12 -234 28 -240 42 -3 8
20 66 51 129 60 123 136 214 206 248 62 30 60 38 60 -204z m185 181 c24 -16
62 -53 85 -82 46 -57 128 -217 132 -258 3 -23 -1 -26 -67 -37 -38 -6 -109 -14
-157 -18 l-88 -7 0 222 0 222 27 -6 c14 -4 45 -20 68 -36z m-439 -32 c-37 -43
-111 -179 -141 -261 -20 -54 -11 -53 -136 -6 -120 46 -121 47 -58 104 76 68
181 134 274 172 44 18 84 33 88 33 5 0 -7 -19 -27 -42z m674 3 c81 -34 188
-102 259 -166 63 -57 62 -58 -58 -104 -125 -47 -116 -48 -136 6 -31 83 -104
218 -142 263 -42 49 -39 49 77 1z"/>
<path d="M140 1297 c0 -2 24 -80 54 -173 l53 -169 54 -3 54 -3 45 130 c25 71
47 128 50 126 3 -2 26 -60 50 -129 l43 -126 52 0 52 0 52 161 c29 88 55 167
58 175 4 11 -5 14 -43 14 l-49 0 -34 -120 c-19 -66 -38 -117 -42 -113 -3 5
-23 59 -44 121 l-37 112 -57 0 -58 0 -43 -122 -44 -123 -22 75 c-13 41 -29 96
-36 123 l-12 47 -48 0 c-26 0 -48 -1 -48 -3z"/>
<path d="M869 1125 l56 -176 54 3 54 3 45 128 c24 70 46 126 48 124 2 -2 23
-59 48 -128 l44 -124 53 -3 54 -2 56 175 57 175 -48 0 -49 0 -16 -57 c-35
-124 -49 -168 -55 -175 -3 -5 -24 46 -45 112 l-39 121 -60 -3 -59 -3 -42 -119
c-48 -136 -37 -141 -90 37 l-26 87 -48 0 -48 0 56 -175z"/>
<path d="M1495 1278 c3 -13 28 -90 54 -173 l48 -150 54 -3 54 -3 45 130 c25
71 47 128 50 126 3 -2 26 -60 50 -129 l45 -126 52 0 52 0 49 153 c27 83 52
162 56 175 7 22 6 23 -40 20 l-48 -3 -35 -118 c-19 -65 -38 -114 -41 -110 -4
5 -24 59 -45 121 l-37 112 -57 0 -58 0 -43 -122 -44 -123 -22 75 c-13 41 -29
96 -36 123 l-12 47 -48 0 c-45 0 -48 -1 -43 -22z"/>
<path d="M135 828 c113 -376 438 -660 828 -723 419 -68 842 134 1056 504 34
59 77 157 96 219 6 22 5 23 -40 20 l-47 -3 -28 -72 c-34 -89 -118 -226 -134
-219 -55 25 -234 96 -243 96 -16 0 -16 9 2 90 23 106 22 110 -28 110 l-43 0
-12 -72 c-7 -40 -16 -79 -20 -86 -7 -10 -29 -9 -113 3 -57 8 -134 17 -171 21
l-68 6 0 64 0 64 -45 0 -45 0 0 -64 0 -64 -67 -6 c-38 -4 -115 -13 -172 -21
-84 -12 -106 -13 -113 -3 -4 7 -13 46 -20 86 l-12 72 -43 0 c-50 0 -51 -4 -28
-110 18 -81 18 -90 3 -90 -10 0 -189 -71 -244 -96 -16 -7 -100 130 -134 219
l-28 72 -47 3 c-45 3 -46 2 -40 -20z m945 -418 c0 -206 -1 -220 -18 -220 -28
0 -107 56 -153 108 -46 54 -154 265 -146 286 4 9 35 18 89 25 125 16 140 18
186 20 l42 1 0 -220z m323 198 c48 -6 81 -16 84 -24 7 -20 -88 -212 -135 -271
-45 -56 -113 -108 -155 -119 l-27 -6 0 222 0 223 78 -7 c42 -3 112 -11 155
-18z m-718 -85 c30 -82 104 -218 141 -261 20 -23 33 -42 29 -42 -3 0 -42 14
-86 31 -91 35 -234 127 -293 187 l-38 40 33 18 c32 16 177 72 190 74 4 0 14
-21 24 -47z m1016 6 c120 -46 121 -47 58 -104 -79 -71 -189 -140 -279 -174
-44 -17 -82 -31 -85 -31 -4 0 9 19 29 42 37 43 111 179 141 261 20 54 11 53
136 6z"/>
</g>
</svg>
