<?xml version="1.0" standalone="no"?>
<!DOCTYPE svg PUBLIC "-//W3C//DTD SVG 20010904//EN"
 "http://www.w3.org/TR/2001/REC-SVG-20010904/DTD/svg10.dtd">
<svg version="1.0" xmlns="http://www.w3.org/2000/svg"
 width="225.000000pt" height="225.000000pt" viewBox="0 0 225.000000 225.000000"
 preserveAspectRatio="xMidYMid meet">

<g transform="translate(0.000000,225.000000) scale(0.100000,-0.100000)"
fill="#000000" stroke="none">
<path d="M1012 1960 c-352 -49 -640 -318 -712 -665 -15 -70 -18 -227 -7 -302
l8 -53 -56 0 -55 0 0 -255 c0 -192 3 -264 14 -288 17 -43 76 -93 123 -106 52
-15 1544 -15 1596 0 47 13 106 63 123 106 11 24 14 96 14 288 l0 255 -55 0
-56 0 8 53 c11 75 8 232 -7 302 -64 311 -308 566 -616 645 -87 23 -237 32
-322 20z m271 -200 c130 -33 201 -74 302 -175 66 -66 99 -108 123 -157 65
-135 88 -295 61 -431 l-12 -57 -296 0 c-295 0 -296 0 -256 19 48 22 69 44 90
94 20 48 19 103 -4 152 -22 48 -44 69 -94 90 -64 27 -149 13 -201 -33 -50 -45
-69 -141 -41 -209 21 -50 42 -72 90 -94 40 -19 39 -19 -256 -19 l-296 0 -12
57 c-27 134 -4 299 58 419 57 113 46 113 159 1 l99 -98 67 67 67 67 -98 99
c-112 113 -112 102 1 160 132 67 303 86 449 48z"/>
</g>
</svg>
