<?xml version="1.0" standalone="no"?>
<!DOCTYPE svg PUBLIC "-//W3C//DTD SVG 20010904//EN"
 "http://www.w3.org/TR/2001/REC-SVG-20010904/DTD/svg10.dtd">
<svg version="1.0" xmlns="http://www.w3.org/2000/svg"
 width="225.000000pt" height="225.000000pt" viewBox="0 0 225.000000 225.000000"
 preserveAspectRatio="xMidYMid meet">

<g transform="translate(0.000000,225.000000) scale(0.100000,-0.100000)"
fill="#000000" stroke="none">
<path d="M898 2085 l-3 -166 -89 -35 -89 -36 -111 111 c-61 61 -114 111 -117
111 -4 0 -76 -69 -161 -154 l-155 -154 115 -115 114 -114 -35 -89 -36 -89
-166 -3 -165 -2 0 -225 0 -225 165 -2 166 -3 35 -89 36 -89 -111 -111 c-61
-61 -111 -114 -111 -117 0 -8 302 -309 309 -309 3 0 56 50 117 111 l111 111
89 -36 89 -35 3 -166 2 -165 225 0 225 0 2 165 3 166 89 36 89 35 115 -115
114 -114 154 155 c85 85 154 157 154 161 0 3 -50 56 -111 117 l-111 111 36 89
35 89 166 3 165 2 0 225 0 225 -165 2 -166 3 -35 89 -36 89 111 111 c61 61
111 114 111 118 0 3 -69 76 -154 161 l-154 154 -115 -114 -114 -115 -89 35
-89 36 -3 166 -2 165 -225 0 -225 0 -2 -165z m302 -135 l0 -150 28 -5 c79 -17
194 -61 250 -96 35 -21 66 -39 70 -39 4 0 52 45 107 100 55 55 102 100 106
100 8 0 99 -91 99 -99 0 -4 -45 -51 -100 -106 -55 -55 -100 -103 -100 -107 0
-4 18 -35 39 -70 35 -56 79 -171 96 -250 l5 -28 150 0 150 0 0 -75 0 -75 -150
0 -150 0 -5 -27 c-17 -80 -61 -195 -96 -251 -21 -35 -39 -66 -39 -70 0 -4 45
-52 100 -107 55 -55 100 -103 100 -107 0 -10 -88 -98 -98 -98 -4 0 -52 45
-107 100 -55 55 -103 100 -107 100 -4 0 -35 -18 -70 -39 -56 -35 -171 -79
-250 -96 l-28 -5 0 -150 0 -150 -75 0 -75 0 0 150 0 150 -27 5 c-80 17 -195
61 -251 96 -35 21 -66 39 -70 39 -4 0 -53 -46 -109 -102 l-102 -101 -39 34
c-75 65 -76 60 37 173 56 56 101 104 101 108 0 4 -18 35 -39 70 -35 56 -79
171 -96 251 l-5 27 -150 0 -150 0 0 75 0 75 150 0 150 0 5 27 c17 80 61 195
96 251 21 35 39 66 39 70 0 4 -45 52 -101 108 -113 113 -112 108 -37 173 l39
34 102 -101 c56 -56 105 -102 109 -102 4 0 35 18 70 39 56 35 171 79 251 96
l27 5 0 150 0 150 75 0 75 0 0 -150z"/>
<path d="M990 1630 c-182 -49 -323 -192 -370 -374 -25 -100 -25 -162 0 -262
24 -94 67 -168 136 -238 71 -71 145 -112 244 -137 225 -57 454 39 577 243 38
62 73 189 73 263 0 74 -35 201 -73 263 -123 205 -362 303 -587 242z m239 -146
c155 -43 271 -197 271 -359 0 -165 -117 -317 -277 -361 -152 -41 -321 21 -406
149 -195 293 75 666 412 571z"/>
</g>
</svg>
