<?xml version="1.0" standalone="no"?>
<!DOCTYPE svg PUBLIC "-//W3C//DTD SVG 20010904//EN"
 "http://www.w3.org/TR/2001/REC-SVG-20010904/DTD/svg10.dtd">
<svg version="1.0" xmlns="http://www.w3.org/2000/svg"
 width="260.000000pt" height="194.000000pt" viewBox="0 0 260.000000 194.000000"
 preserveAspectRatio="xMidYMid meet">

<g transform="translate(0.000000,194.000000) scale(0.100000,-0.100000)"
fill="#000000" stroke="none">
<path d="M1437 1690 c-125 -38 -234 -74 -242 -80 -27 -23 1 -44 92 -70 l88
-26 5 -93 c5 -88 7 -94 35 -118 82 -68 230 -104 358 -86 87 12 184 53 223 94
26 27 29 39 34 116 l5 86 93 29 c74 23 92 32 92 48 0 10 -4 22 -10 25 -25 16
-487 145 -514 144 -17 -1 -134 -32 -259 -69z m493 -34 l215 -64 -100 -30
c-238 -72 -310 -92 -341 -92 -25 0 -350 89 -424 117 -14 5 386 131 420 132 8
0 112 -28 230 -63z m-225 -236 c11 0 77 18 148 39 l127 39 0 -73 c0 -82 -11
-99 -90 -134 -132 -58 -315 -45 -427 32 -32 22 -33 23 -33 98 l0 77 128 -39
c70 -21 136 -39 147 -39z"/>
<path d="M2207 1524 c-4 -4 -7 -33 -7 -64 0 -47 -4 -60 -25 -80 -48 -45 -20
-120 45 -120 65 0 94 79 46 124 -20 18 -25 34 -28 81 -3 54 -14 75 -31 59z
m38 -194 c0 -18 -6 -26 -21 -28 -26 -4 -40 24 -23 45 18 21 44 11 44 -17z"/>
<path d="M423 1420 c-51 -21 -53 -39 -53 -454 l0 -386 -65 -100 c-59 -92 -65
-105 -65 -154 0 -39 6 -60 21 -80 44 -56 47 -56 439 -56 l361 0 -3 23 -3 22
-368 5 -369 5 -19 24 c-10 13 -19 36 -19 52 l0 29 289 0 290 0 21 -30 c22 -30
23 -31 98 -28 61 2 77 6 77 18 0 11 -15 16 -65 18 -60 3 -66 5 -82 32 l-17 30
-296 2 -295 3 55 83 55 82 346 0 c324 0 345 1 342 17 -3 17 -28 18 -341 21
l-337 2 0 385 c0 370 1 385 19 395 13 6 161 10 414 10 216 0 397 3 400 7 4 3
2 12 -4 20 -9 10 -88 13 -408 12 -218 0 -406 -4 -418 -9z"/>
<path d="M1374 1268 c-4 -7 -10 -51 -12 -98 -3 -69 0 -96 18 -142 29 -78 96
-150 177 -190 56 -27 75 -32 141 -31 103 0 176 29 243 94 61 60 100 140 106
223 7 77 -11 149 -35 144 -11 -2 -16 -11 -13 -23 2 -11 4 -54 4 -95 1 -58 -4
-85 -21 -120 -34 -71 -78 -116 -144 -149 -111 -56 -244 -38 -336 44 -32 29
-58 65 -77 106 -24 55 -27 70 -24 152 3 62 0 91 -8 94 -6 2 -15 -2 -19 -9z"/>
<path d="M825 1231 c-89 -55 -118 -145 -76 -236 22 -48 44 -69 94 -90 48 -20
93 -19 143 4 94 43 133 162 83 251 -46 82 -169 118 -244 71z m162 -41 c81 -49
84 -168 7 -229 -41 -32 -85 -36 -138 -12 -38 16 -51 29 -67 67 -28 62 -19 106
31 156 33 34 43 38 86 38 31 0 61 -7 81 -20z"/>
<path d="M2160 1216 c-4 -13 -14 -43 -20 -67 -11 -40 -10 -45 10 -61 25 -20
109 -25 141 -8 23 13 24 35 3 106 -12 41 -20 54 -35 54 -23 0 -23 -10 -4 -72
l14 -48 -46 0 c-42 0 -45 2 -39 23 3 12 9 39 12 60 5 30 4 37 -10 37 -9 0 -21
-11 -26 -24z"/>
<path d="M700 834 c-67 -29 -130 -111 -130 -169 0 -39 32 -28 44 14 14 48 73
107 121 120 22 6 105 11 185 11 159 0 201 -11 249 -64 26 -27 45 -33 56 -16
12 19 -38 72 -89 96 -48 22 -62 24 -226 24 -134 -1 -183 -4 -210 -16z"/>
<path d="M1380 754 c-106 -29 -183 -92 -237 -196 -26 -49 -28 -63 -31 -194 -4
-139 -3 -142 19 -158 21 -14 83 -16 574 -16 491 0 553 2 574 16 22 16 23 20
19 158 -3 139 -4 142 -37 204 -42 78 -114 144 -189 174 -54 21 -71 23 -347 25
-233 2 -301 -1 -345 -13z m677 -55 c68 -26 138 -92 173 -164 20 -42 25 -68 28
-172 l4 -123 -557 0 -557 0 3 123 c4 110 7 128 32 179 34 69 100 130 171 157
47 18 77 20 348 20 280 1 301 0 355 -20z"/>
</g>
</svg>
