<?xml version="1.0" standalone="no"?>
<!DOCTYPE svg PUBLIC "-//W3C//DTD SVG 20010904//EN"
 "http://www.w3.org/TR/2001/REC-SVG-20010904/DTD/svg10.dtd">
<svg version="1.0" xmlns="http://www.w3.org/2000/svg"
 width="225.000000pt" height="225.000000pt" viewBox="0 0 225.000000 225.000000"
 preserveAspectRatio="xMidYMid meet">

<g transform="translate(0.000000,225.000000) scale(0.100000,-0.100000)"
fill="#000000" stroke="none">
<path d="M16 2054 c-23 -23 -23 -275 0 -298 12 -13 39 -16 129 -16 l114 0 6
-37 c42 -273 171 -485 385 -630 67 -45 135 -77 230 -109 80 -26 95 -28 255
-28 160 0 175 2 255 28 47 16 108 40 135 54 246 124 422 359 471 629 l16 93
103 0 c139 0 135 -5 135 165 0 108 -3 137 -16 149 -14 14 -128 16 -1109 16
-981 0 -1095 -2 -1109 -16z m1884 -342 c0 -52 -41 -187 -81 -263 -99 -190
-261 -322 -479 -390 -108 -34 -302 -34 -410 0 -213 66 -379 199 -474 380 -37
72 -86 225 -86 272 l0 29 765 0 765 0 0 -28z"/>
<path d="M416 928 c-35 -55 -108 -219 -113 -255 -11 -84 51 -153 137 -153 89
0 146 63 138 152 -6 57 -112 278 -134 278 -7 0 -20 -10 -28 -22z"/>
<path d="M1836 928 c-35 -55 -108 -219 -113 -255 -11 -86 51 -153 140 -153 88
0 143 62 135 151 -6 58 -111 279 -133 279 -8 0 -21 -10 -29 -22z"/>
<path d="M1135 546 c-53 -96 -85 -181 -85 -228 0 -147 195 -189 263 -58 26 50
16 95 -50 233 -41 84 -62 117 -74 117 -12 0 -31 -23 -54 -64z"/>
</g>
</svg>
