<?xml version="1.0" standalone="no"?>
<!DOCTYPE svg PUBLIC "-//W3C//DTD SVG 20010904//EN"
 "http://www.w3.org/TR/2001/REC-SVG-20010904/DTD/svg10.dtd">
<svg version="1.0" xmlns="http://www.w3.org/2000/svg"
 width="225.000000pt" height="225.000000pt" viewBox="0 0 225.000000 225.000000"
 preserveAspectRatio="xMidYMid meet">

<g transform="translate(0.000000,225.000000) scale(0.100000,-0.100000)"
fill="#000000" stroke="none">
<path d="M1080 2128 c-43 -12 -88 -52 -106 -95 l-14 -33 -225 0 c-248 0 -287
-7 -305 -55 -14 -36 -14 -1604 0 -1640 20 -52 46 -55 442 -53 l363 3 3 27 3
28 -378 2 -378 3 0 810 0 810 153 3 152 3 0 -60 c0 -54 3 -62 31 -85 l31 -26
273 0 273 0 31 26 c28 23 31 31 31 85 l0 60 153 -3 152 -3 3 -541 2 -541 26
-11 c14 -7 27 -12 29 -12 10 0 5 1089 -5 1115 -18 48 -57 55 -305 55 l-225 0
-14 33 c-19 44 -63 83 -111 96 -22 6 -42 11 -45 10 -3 0 -21 -5 -40 -11z m100
-63 c33 -17 60 -61 60 -100 0 -25 1 -25 85 -25 l85 0 0 -39 c0 -76 19 -71
-285 -71 -304 0 -285 -5 -285 71 l0 39 85 0 c84 0 85 0 85 25 0 86 93 140 170
100z"/>
<path d="M1111 1990 c-19 -11 -9 -45 14 -45 13 0 21 8 23 21 3 23 -17 37 -37
24z"/>
<path d="M594 1865 c-8 -19 3 -35 26 -35 19 0 30 17 23 38 -6 17 -42 15 -49
-3z"/>
<path d="M594 1755 c-8 -19 3 -35 26 -35 19 0 30 17 23 38 -6 17 -42 15 -49
-3z"/>
<path d="M600 1644 c-11 -12 -10 -18 3 -32 16 -15 18 -15 34 0 13 14 14 20 3
32 -7 9 -16 16 -20 16 -4 0 -13 -7 -20 -16z"/>
<path d="M600 1534 c-11 -12 -10 -18 3 -32 16 -15 18 -15 34 0 13 14 14 20 3
32 -7 9 -16 16 -20 16 -4 0 -13 -7 -20 -16z"/>
<path d="M802 1541 c-8 -5 -12 -17 -10 -27 3 -18 18 -19 333 -19 315 0 330 1
333 19 2 10 -2 22 -10 27 -17 11 -629 11 -646 0z"/>
<path d="M597 1423 c-12 -11 -7 -33 8 -39 20 -8 45 13 38 32 -5 14 -34 19 -46
7z"/>
<path d="M933 1414 c-3 -8 -1 -20 4 -25 5 -5 112 -8 264 -7 246 3 254 4 254
23 0 19 -8 20 -258 23 -227 2 -258 0 -264 -14z"/>
<path d="M594 1305 c-8 -19 3 -35 26 -35 19 0 30 17 23 38 -6 17 -42 15 -49
-3z"/>
<path d="M933 1304 c-3 -8 -1 -20 4 -25 5 -5 112 -8 264 -7 246 3 254 4 254
23 0 19 -8 20 -258 23 -227 2 -258 0 -264 -14z"/>
<path d="M600 1194 c-11 -12 -11 -18 1 -30 13 -12 18 -12 34 0 16 12 17 16 6
30 -17 20 -25 20 -41 0z"/>
<path d="M599 1084 c-10 -12 -9 -18 4 -31 13 -13 19 -14 31 -3 21 17 20 27 -3
39 -14 8 -22 7 -32 -5z"/>
<path d="M802 1091 c-8 -5 -12 -17 -10 -27 3 -18 18 -19 333 -19 315 0 330 1
333 19 2 10 -2 22 -10 27 -17 11 -629 11 -646 0z"/>
<path d="M594 965 c-8 -19 3 -35 26 -35 19 0 30 17 23 38 -6 17 -42 15 -49 -3z"/>
<path d="M933 964 c-3 -8 -1 -20 4 -25 5 -5 112 -8 264 -7 246 3 254 4 254 23
0 19 -8 20 -258 23 -227 2 -258 0 -264 -14z"/>
<path d="M594 855 c-8 -19 3 -35 26 -35 19 0 30 17 23 38 -6 17 -42 15 -49 -3z"/>
<path d="M1350 739 c-335 -130 -329 -128 -337 -156 -8 -36 7 -46 142 -98 66
-26 125 -51 132 -57 9 -7 13 -38 13 -88 0 -91 9 -103 90 -122 75 -18 406 -17
483 0 86 20 97 35 97 132 l0 80 33 14 c84 35 77 45 77 -114 0 -111 -3 -146
-16 -165 -15 -22 -14 -28 12 -84 15 -34 30 -61 34 -61 12 0 50 96 50 124 0 14
-4 28 -10 31 -6 4 -10 70 -10 164 l0 158 44 17 c58 22 72 40 60 73 -8 23 -43
39 -299 139 -159 62 -301 113 -315 113 -14 0 -140 -45 -280 -100z m553 -55
c150 -58 273 -108 275 -109 2 -2 -43 -21 -100 -43 l-103 -41 -20 24 c-48 58
-303 91 -474 61 -110 -19 -181 -47 -181 -72 0 -11 -5 -14 -17 -10 -122 45
-205 80 -198 83 6 2 129 50 275 107 146 58 266 105 268 105 2 1 126 -47 275
-105z m-149 -159 c32 -4 80 -13 107 -21 l49 -15 0 -75 0 -75 -47 8 c-76 13
-443 10 -480 -4 l-33 -12 0 79 0 79 43 11 c23 6 51 14 61 17 34 10 160 21 201
17 22 -2 66 -6 99 -9z m101 -232 c45 -14 18 -23 -110 -35 -176 -17 -471 17
-319 37 27 3 56 8 64 10 28 7 335 -3 365 -12z"/>
<path d="M600 744 c-11 -12 -10 -18 3 -32 16 -15 18 -15 34 0 13 14 14 20 3
32 -7 9 -16 16 -20 16 -4 0 -13 -7 -20 -16z"/>
<path d="M600 634 c-11 -12 -10 -18 3 -32 16 -15 18 -15 34 0 13 14 14 20 3
32 -7 9 -16 16 -20 16 -4 0 -13 -7 -20 -16z"/>
<path d="M594 515 c-8 -19 3 -35 26 -35 19 0 30 17 23 38 -6 17 -42 15 -49 -3z"/>
<path d="M594 405 c-8 -19 3 -35 26 -35 19 0 30 17 23 38 -6 17 -42 15 -49 -3z"/>
</g>
</svg>
